<?xml version='1.0' encoding='utf-8'?>
<svg xmlns="http://www.w3.org/2000/svg" version="1.1" viewBox="0 0 240 360" width="240" height="360"><g transform="translate(-1380,27.6378)"><g transform="matrix(4,0,0,4,-1260,-1357.0865)">
      <rect width="60" height="90" rx="10" ry="10" x="660" y="332.36218" style="fill:#ffffff;fill-opacity:1;fill-rule:evenodd;stroke:#000000;stroke-width:0.5;stroke-miterlimit:4;stroke-dasharray:none" />
      <rect width="50" height="80" rx="5" ry="5" x="665" y="337.36218" style="fill:#55aa55;fill-opacity:1;fill-rule:evenodd;stroke:none" />
      <path d="m 705,352.36217 c -22.09139,0 -40,17.90861 -40,40 0,5.52285 4.47715,10 10,10 22.09139,0 40,-17.90861 40,-40 0,-5.52285 -4.47715,-10 -10,-10 z" style="fill:#ffffff;fill-opacity:1;fill-rule:evenodd;stroke:none" />
      <path d="m 690,361.11217 2.5,2.5 -10,10 c -2.5,2.5 -2.5,7.5 0,10 l 5,-5 10,-10 2.5,2.5 0,-10 z" style="fill:#55aa55;fill-opacity:1;stroke:none" />
      <path d="m 690,393.61217 -2.5,-2.5 10,-10 c 2.5,-2.5 2.5,-7.5 0,-10 l -5,5 -10,10 -2.5,-2.5 0,10 z" style="fill:#55aa55;fill-opacity:1;stroke:none" />
      <path d="m 672.5,339.86216 1.25,1.25 -5,5 c -1.25,1.25 -1.25,3.75 0,5 l 2.5,-2.5 5,-5 1.25,1.25 0,-5 z" style="fill:#ffffff;stroke:none" />
      <path d="m 672.5,356.11216 -1.25,-1.25 5,-5 c 1.25,-1.25 1.25,-3.75 0,-5 l -2.5,2.5 -5,5 -1.25,-1.25 0,5 z" style="fill:#ffffff;stroke:none" />
      <path d="m 707.5,398.61216 1.25,1.25 -5,5 c -1.25,1.25 -1.25,3.75 0,5 l 2.5,-2.5 5,-5 1.25,1.25 0,-5 z" style="fill:#ffffff;stroke:none" />
      <path d="m 707.5,414.86216 -1.25,-1.25 5,-5 c 1.25,-1.25 1.25,-3.75 0,-5 l -2.5,2.5 -5,5 -1.25,-1.25 0,5 z" style="fill:#ffffff;stroke:none" />
    </g>
    </g></svg>