<?xml version='1.0' encoding='utf-8'?>
<svg xmlns="http://www.w3.org/2000/svg" version="1.1" viewBox="0 0 240 360" width="240" height="360"><g transform="translate(-420,747.638)"><g transform="matrix(4,0,0,4,-1260,-2077.0865)">
      <rect width="60" height="90" rx="10" ry="10" x="420" y="332.36218" style="fill:#ffffff;fill-opacity:1;fill-rule:evenodd;stroke:#000000;stroke-width:0.5;stroke-miterlimit:4;stroke-dasharray:none" />
      <rect width="50" height="80" rx="5" ry="5" x="425" y="337.36218" style="fill:#ff5555;fill-opacity:1;fill-rule:evenodd;stroke:none" />
      <path d="m 465,352.36215 c -22.09139,0 -40,17.90861 -40,40 0,5.52285 4.47715,10 10,10 22.09139,0 40,-17.90861 40,-40 0,-5.52285 -4.47715,-10 -10,-10 z" style="fill:#ffffff;fill-opacity:1;fill-rule:evenodd;stroke:none" />
      <path d="m 441.5,362.36217 0,10 5,0 0,-5 10,0 -10,25 5,0 10,-25 0,-5 -15,0 -5,0 z" style="fill:#ff5555;fill-opacity:1;fill-rule:evenodd;stroke:none" />
      <path d="m 427.5,339.86217 0,5 2.5,0 0,-2.5 5,0 -5,12.5 2.5,0 5,-12.5 0,-2.5 -7.5,0 -2.5,0 z" style="fill:#ffffff;fill-opacity:1;fill-rule:evenodd;stroke:none" />
      <path d="m 472.5,414.86217 0,-5 -2.5,0 0,2.5 -5,0 5,-12.5 -2.5,0 -5,12.5 0,2.5 7.5,0 2.5,0 z" style="fill:#ffffff;fill-opacity:1;fill-rule:evenodd;stroke:none" />
    </g>
    </g></svg>