<?xml version='1.0' encoding='utf-8'?>
<svg xmlns="http://www.w3.org/2000/svg" version="1.1" viewBox="0 0 240 360" width="240" height="360"><g transform="translate(60,387.638)"><g transform="matrix(4,0,0,4,-1260,-1717.0865)">
      <rect width="60" height="90" rx="10" ry="10" x="300" y="332.36218" style="fill:#ffffff;fill-opacity:1;fill-rule:evenodd;stroke:#000000;stroke-width:0.5;stroke-miterlimit:4;stroke-dasharray:none" />
      <rect width="50" height="80" rx="5" ry="5" x="305" y="337.36218" style="fill:#ffaa00;fill-opacity:1;fill-rule:evenodd;stroke:none" />
      <path d="m 345,352.36217 c -22.09139,0 -40,17.90861 -40,40 0,5.52285 4.47715,10 10,10 22.09139,0 40,-17.90861 40,-40 0,-5.52285 -4.47715,-10 -10,-10 z" style="fill:#ffffff;fill-opacity:1;fill-rule:evenodd;stroke:none" />
      <path d="m 321,362.36217 0,10 0,5 10,0 c 2.77,0 5,2.23 5,5 0,2.77 -2.23,5 -5,5 -2.77,0 -5,-2.23 -5,-5 l -5,0 c 0,5.54 4.46,10 10,10 5.54,0 10,-4.46 10,-10 0,-5.54 -4.46,-10 -10,-10 l -5,0 0,-5 5,0 9,0 0,-5 -9,0 -5,0 z" style="fill:#ffaa00;fill-opacity:1;stroke:none" />
      <path d="m 307.5,339.86217 0,5 0,2.5 5,0 c 1.385,0 2.5,1.115 2.5,2.5 0,1.385 -1.115,2.5 -2.5,2.5 -1.385,0 -2.5,-1.115 -2.5,-2.5 l -2.5,0 c 0,2.77 2.23,5 5,5 2.77,0 5,-2.23 5,-5 0,-2.77 -2.23,-5 -5,-5 l -2.5,0 0,-2.5 2.5,0 4.5,0 0,-2.5 -4.5,0 -2.5,0 z" style="fill:#ffffff;fill-opacity:1;stroke:none" />
      <path d="m 352.5,414.86217 0,-5 0,-2.5 -5,0 c -1.385,0 -2.5,-1.115 -2.5,-2.5 0,-1.385 1.115,-2.5 2.5,-2.5 1.385,0 2.5,1.115 2.5,2.5 l 2.5,0 c 0,-2.77 -2.23,-5 -5,-5 -2.77,0 -5,2.23 -5,5 0,2.77 2.23,5 5,5 l 2.5,0 0,2.5 -2.5,0 -4.5,0 0,2.5 4.5,0 2.5,0 z" style="fill:#ffffff;fill-opacity:1;stroke:none" />
    </g>
    </g></svg>